<svg version="1.1" id="Layer_1" xmlns="http://www.w3.org/2000/svg"  x="0px" y="0px"
	 width="100%" viewBox="0 0 208 150" enable-background="new 0 0 208 150" >
	<path fill="#F6F6F6" opacity="1.000000" stroke="none" 
	d="
	M208.708542,61.778793 
	C209.000000,90.282455 208.895493,118.565750 209.122452,146.846390 
	C209.153412,150.703613 208.018784,151.085358 204.667709,151.077805 
	C154.757782,150.965195 104.847511,151.000000 54.468658,151.000000 
	C53.882050,150.781342 53.764103,150.562683 53.782547,149.997726 
	C64.106583,143.052216 74.789047,137.295975 85.295433,131.240082 
	C100.134323,122.686935 115.034470,114.240288 130.150940,105.456573 
	C133.929626,103.517387 136.692703,100.581039 140.755905,99.113441 
	C158.188354,89.723602 174.762329,79.548431 191.715973,70.042603 
	C197.149658,66.995956 202.019028,62.736000 208.708542,61.778793 
	z"/>
	<path fill="#F7F7F7" opacity="1.000000" stroke="none" 
	d="
	M1.307395,87.235771 
	C1.000000,59.564137 1.068608,32.127872 0.908676,4.692940 
	C0.889784,1.452122 1.791569,0.917744 4.790355,0.928359 
	C37.214142,1.043129 69.638489,1.000000 102.531342,1.000000 
	C104.322090,3.024608 102.875359,4.294797 101.474663,4.998954 
	C87.736336,11.905468 75.398651,21.249687 61.171692,27.975681 
	C59.152348,28.428459 57.171562,27.941902 55.794151,30.037716 
	C55.407639,30.468367 55.243889,30.635727 54.808708,31.031551 
	C53.439884,32.068417 52.518211,32.897598 52.853920,34.520737 
	C53.900478,39.580765 53.166225,44.746353 53.609161,49.814484 
	C54.109535,55.539848 52.957485,60.277851 48.150330,64.234634 
	C43.721973,69.033844 37.772743,70.773972 32.729301,73.956512 
	C26.281199,78.025421 19.610891,81.807663 12.339189,85.212273 
	C8.395598,85.441841 5.474635,88.702850 1.307395,87.235771 
	z"/>
	<path fill="#D3D3D3" opacity="1.000000" stroke="none" 
	d="
	M208.717255,30.778549 
	C209.000000,39.687565 209.000000,48.375126 209.000000,57.531345 
	C206.156830,60.644939 203.296814,63.258358 198.832184,63.028698 
	C196.646469,58.315067 198.029999,53.632961 197.555283,49.092209 
	C197.432007,47.912956 198.048080,45.967159 196.176834,45.975090 
	C194.560516,45.981934 194.567642,47.841988 194.498077,49.118931 
	C194.309692,52.577671 194.546463,56.048897 194.375854,59.505054 
	C194.257706,61.898926 195.892014,62.079647 197.831848,62.657612 
	C197.648422,66.874557 194.778442,67.438858 191.168396,67.216179 
	C188.473755,62.967583 189.994125,58.535831 189.496201,54.312820 
	C189.339462,52.983486 190.186356,50.762852 188.144745,50.682976 
	C186.213043,50.607399 185.749496,52.714321 185.603119,54.414528 
	C185.146957,59.713142 185.941559,65.055031 184.937180,70.717270 
	C184.514725,71.570869 184.127625,71.929184 183.231720,72.095154 
	C180.658493,68.864456 181.793442,65.269257 181.513443,61.863174 
	C181.314835,59.447178 181.831940,56.974617 181.171600,54.375072 
	C177.911026,55.415001 177.661072,57.872356 177.536118,60.368340 
	C177.287506,65.334236 177.872543,70.323036 177.001694,75.653229 
	C176.476212,76.765297 175.914536,77.279404 174.689041,77.346542 
	C172.140961,75.549828 172.741318,73.068451 172.596313,70.810249 
	C172.375015,67.364273 172.968582,63.869148 172.150208,60.332695 
	C168.672043,62.906429 168.222778,73.100510 171.529510,77.383194 
	C172.955490,79.503738 171.449722,80.462502 170.251831,81.147095 
	C161.158401,86.344040 152.272491,91.912056 142.881409,96.579079 
	C142.442307,96.797295 141.906998,96.763954 141.045578,96.676735 
	C137.865646,94.945816 139.087433,91.886765 138.390076,89.253944 
	C136.421402,92.097267 138.608093,95.913963 135.581726,98.115944 
	C133.273209,96.984474 134.084946,94.600563 132.964706,92.074760 
	C131.962967,95.828400 132.825073,99.099785 131.798279,102.448433 
	C121.584579,109.410934 111.361107,115.769836 99.911102,120.608246 
	C99.291389,120.452866 99.057671,120.342590 98.578384,119.933929 
	C96.868134,115.601990 97.846359,111.408356 97.504608,107.302742 
	C97.392067,105.950706 98.167526,103.728714 96.245247,103.590553 
	C94.380280,103.456497 93.779541,105.535912 93.613998,107.252335 
	C93.310837,110.395721 93.530464,113.554832 93.460609,116.706268 
	C93.420288,118.525734 93.539230,120.369087 92.542816,122.397362 
	C88.600983,123.367271 88.992630,120.412003 88.696228,118.342880 
	C88.237312,115.139153 88.938179,111.808296 87.624733,108.616501 
	C84.220634,114.206192 85.340576,120.142914 86.328522,126.415749 
	C86.523102,127.040482 86.566856,127.304291 86.559914,127.973488 
	C85.661125,130.115265 84.299217,130.794708 82.069107,130.144348 
	C79.523529,125.716782 80.970512,121.177689 80.488579,116.820419 
	C80.345650,115.528130 81.101379,113.402618 78.930099,113.404129 
	C77.205238,113.405327 76.802147,115.267815 76.655754,116.769051 
	C76.127914,122.182312 76.883942,127.637398 76.045670,133.433044 
	C75.687279,134.322784 75.340897,134.734909 74.482101,135.123291 
	C73.874008,135.013565 73.670425,134.837357 73.267807,134.315765 
	C72.070808,130.042618 72.773651,126.037285 72.511246,122.077583 
	C72.418877,120.683746 73.083412,118.395432 71.348343,118.224037 
	C69.056648,117.997681 68.725708,120.388115 68.590363,122.202301 
	C68.256866,126.672897 68.608917,131.162170 68.346214,136.026566 
	C66.231705,143.719772 59.411697,144.748047 53.377060,147.285889 
	C52.773228,147.007431 52.578663,146.805573 52.188644,146.227905 
	C50.692142,139.107681 52.070087,132.288971 51.324188,125.134003 
	C50.693592,121.155388 52.849670,119.177467 55.580662,117.613113 
	C68.425842,110.255234 80.793030,102.000000 94.144371,95.615715 
	C101.238327,92.223572 105.171135,88.052956 103.671440,79.952774 
	C103.492500,78.986275 103.624352,77.960663 103.590034,76.560150 
	C103.658241,71.701538 103.426064,67.241829 103.823090,62.392406 
	C104.913918,59.251461 107.381676,58.069263 109.664482,56.784962 
	C123.370674,49.073895 136.992661,41.216434 150.622192,33.371647 
	C152.464798,32.311096 154.281967,31.000467 156.970764,31.904377 
	C159.684891,36.866661 158.209503,41.925964 158.570770,46.821861 
	C158.716736,48.800076 158.624924,50.800583 158.502319,53.177589 
	C158.413742,54.498219 158.399841,55.432392 158.407913,56.639099 
	C158.452637,57.271954 158.619461,57.542530 159.191528,57.697880 
	C175.258682,48.531910 191.121033,39.491131 207.375458,30.464550 
	C207.965240,30.461733 208.199860,30.509417 208.717255,30.778549 
	z"/>
	<path fill="#FDFDFD" opacity="1.000000" stroke="none" 
	d="
	M156.208237,31.610113 
	C139.239304,41.527954 122.484245,51.144127 105.433983,60.931786 
	C103.750359,61.825966 101.963272,61.586319 100.551041,63.098366 
	C99.112030,63.931175 97.743866,63.784016 96.214844,64.325134 
	C95.684822,64.387405 95.469612,64.373001 94.973969,64.198456 
	C93.774445,62.859364 93.496895,61.333473 92.412613,59.870430 
	C91.775398,58.895939 91.517654,57.991817 90.163322,57.864716 
	C89.411552,57.838779 88.982254,57.805729 88.235962,57.679142 
	C87.286560,57.403095 86.696663,57.107788 85.837646,56.598686 
	C85.207260,56.124363 84.891846,55.802505 84.409462,55.176323 
	C82.807800,52.731773 81.879066,49.856136 77.948700,50.921120 
	C76.085762,50.858150 74.806534,50.275524 73.569267,48.881687 
	C72.599876,46.232876 71.738235,43.982761 68.170441,44.581478 
	C67.588638,44.541531 67.355843,44.497486 66.800064,44.295452 
	C63.397274,40.873558 60.235600,37.825123 55.894299,36.098137 
	C53.470879,35.134094 52.324856,33.048977 54.750740,30.266556 
	C56.227825,28.672102 57.581539,27.563614 59.747086,27.212822 
	C68.709923,23.779909 76.105476,18.214125 83.863632,13.356522 
	C89.030785,10.121222 94.723152,7.945146 99.807808,4.618896 
	C101.029716,3.819558 102.601974,3.447780 102.959389,1.351464 
	C104.066673,1.000000 105.133339,1.000000 106.600006,1.000000 
	C113.515602,5.337592 120.555893,8.751655 127.366646,12.569701 
	C130.175369,14.144251 132.712418,13.474786 135.340454,11.898747 
	C141.320801,8.312305 147.586792,5.217471 153.743530,1.243014 
	C155.714355,1.000000 157.428711,1.000000 159.571533,1.000000 
	C174.656555,8.766483 188.395294,18.133802 203.148422,25.737659 
	C205.187500,26.788624 207.218445,28.042667 208.123108,30.678921 
	C193.704361,39.349903 179.386459,47.668041 165.071823,55.991772 
	C162.924438,57.240440 160.792282,58.515297 158.330139,59.902645 
	C157.849609,59.858337 157.692017,59.689430 157.297546,59.267616 
	C157.055954,57.944279 157.051224,56.873844 157.073944,55.402786 
	C160.893356,50.783470 166.242050,48.993275 171.051773,46.531467 
	C179.784439,42.061733 187.175201,35.284435 196.858505,31.846222 
	C199.325806,29.665146 196.736877,29.430384 195.916290,28.937401 
	C189.360413,24.998775 182.686722,21.258560 176.036728,17.480589 
	C170.978333,14.606829 166.102036,11.432142 160.971161,8.668293 
	C158.329971,7.245565 156.178558,6.906364 153.596954,8.571707 
	C149.406067,11.275191 144.933655,13.517028 140.681198,16.121941 
	C139.832794,16.641644 137.746567,16.753241 139.388428,18.892086 
	C144.881744,21.618128 149.009583,25.879408 154.371155,28.198746 
	C155.553345,28.710146 156.555725,29.734722 156.208237,31.610113 
	z"/>
	<path fill="#FDFDFD" opacity="1.000000" stroke="none" 
	d="
	M104.641068,76.845016 
	C105.144615,91.464249 104.992348,91.182861 92.485489,97.950829 
	C79.841316,104.793098 67.555229,112.295639 55.072315,119.439102 
	C53.481071,120.349693 52.573051,121.528465 52.239380,123.611290 
	C52.046883,124.118385 51.875229,124.277351 51.367203,124.538063 
	C48.624081,124.625328 45.272446,121.675117 44.247929,126.987427 
	C43.761543,127.259628 43.528214,127.285881 42.986809,127.142090 
	C41.272156,124.025108 41.877831,120.026299 37.906601,118.054848 
	C36.695709,116.241867 35.371990,115.214081 33.128162,115.030815 
	C31.686823,114.614990 30.693064,114.086487 29.801943,112.860085 
	C28.470041,110.727425 27.084169,109.231117 24.288759,109.565826 
	C23.272139,109.560593 22.672920,109.288963 21.886204,108.663811 
	C20.867119,107.172302 19.939770,106.121330 17.956432,106.115570 
	C17.009172,105.904160 16.431572,105.635246 15.709967,104.998444 
	C15.145526,104.319221 14.822145,103.833572 13.927282,103.676331 
	C12.797052,103.750008 11.992769,103.604019 10.914576,103.185944 
	C10.430183,102.952286 10.241716,102.846420 9.785959,102.555450 
	C8.531845,101.510811 7.395718,100.828262 6.319517,99.567596 
	C5.316036,96.978424 2.967408,96.146347 1.243124,94.239777 
	C1.000000,92.933327 1.000000,91.866661 1.000000,90.399994 
	C3.767466,86.803680 8.082309,86.511314 11.723186,84.217087 
	C18.049229,80.757874 24.365482,77.920547 30.069134,74.155258 
	C35.413929,70.626862 41.335503,68.179344 46.783386,64.260452 
	C49.508137,62.268372 51.786259,60.220787 54.718288,58.474930 
	C57.056244,57.686214 58.797218,58.593037 60.901768,59.424751 
	C61.671562,59.707428 62.101421,59.888321 62.812531,60.282471 
	C64.009781,61.177685 64.702728,62.075970 65.517242,63.312302 
	C67.506241,66.111191 68.912941,69.261177 73.311882,68.163681 
	C74.997833,67.984390 76.321709,68.299446 77.997299,68.390945 
	C78.546921,68.502769 78.760681,68.574928 79.241333,68.854164 
	C80.940483,71.392555 82.930222,73.024590 85.853340,74.010872 
	C86.778374,74.444870 87.371788,74.783920 88.274559,75.280945 
	C93.167717,78.209068 93.167717,78.209068 94.392250,71.396835 
	C94.763054,70.928680 94.953636,70.776138 95.505173,70.551155 
	C96.365921,70.540047 96.799942,70.745773 97.362579,71.391548 
	C97.601692,71.941841 97.655540,72.176491 97.717110,72.767639 
	C97.463127,75.381821 96.879761,77.668816 97.786064,79.882774 
	C98.377907,81.328552 99.644157,82.354919 101.145210,82.410904 
	C103.139565,82.485291 102.503258,80.607895 102.793526,79.478577 
	C102.955231,78.849419 103.043594,78.201775 103.500999,77.306793 
	C103.909058,76.904076 104.117691,76.792732 104.641068,76.845016 
	z"/>
	<path fill="#F5F5F5" opacity="1.000000" stroke="none" 
	d="
	M52.081257,150.635391 
	C35.922264,151.000000 19.844139,150.945923 3.767236,151.061752 
	C1.509178,151.078018 0.862269,150.737869 0.921309,148.295135 
	C1.125505,139.846832 1.000000,131.390564 1.000000,122.468658 
	C2.676387,120.681442 4.235336,121.642189 5.618661,122.445633 
	C20.290396,130.967102 35.062992,139.313568 49.709232,147.878754 
	C50.710514,148.464310 51.704178,149.105698 52.081257,150.635391 
	z"/>
	<path fill="#F7F7F7" opacity="1.000000" stroke="none" 
	d="
	M208.266129,31.029613 
	C199.423416,23.605371 188.407684,20.168280 179.286423,13.623670 
	C173.149658,9.220475 165.853821,6.703141 160.055115,1.342837 
	C175.413651,1.000000 190.827759,1.058393 206.240448,0.936256 
	C208.519516,0.918196 209.130768,1.291382 209.076950,3.712025 
	C208.881744,12.491808 209.000000,21.278561 209.000000,30.531342 
	C209.000000,31.000000 208.511047,31.029268 208.266129,31.029613 
	z"/>
	<path fill="#F8F8F8" opacity="1.000000" stroke="none" 
	d="
	M23.901833,109.304382 
	C24.994003,108.138344 25.942804,107.290817 27.185890,106.180428 
	C28.019430,107.493645 26.434692,111.354225 30.305403,109.514305 
	C31.217186,109.080902 31.453405,109.577850 30.124054,111.934341 
	C29.296654,113.605644 28.694902,115.145874 28.636084,116.765312 
	C28.569426,118.600548 29.563677,120.173042 31.382874,120.131683 
	C33.308353,120.087898 32.482800,118.187943 32.572018,117.027863 
	C32.633549,116.227730 32.478153,115.411232 32.816216,114.303467 
	C34.939137,114.072350 37.138645,113.579010 37.954750,116.597900 
	C36.765423,123.457413 36.862774,123.679543 42.624184,126.882004 
	C42.948307,127.002991 43.402435,126.995598 43.629498,126.991997 
	C45.692829,128.019287 46.824905,130.200912 49.318375,130.353363 
	C50.619610,128.597336 49.208370,126.391335 50.509727,124.382828 
	C50.975910,124.087601 51.223339,124.059479 51.844650,123.995392 
	C53.995434,131.216583 52.545456,138.592712 53.030548,146.354370 
	C51.513664,147.886276 50.142452,147.010345 48.908470,146.313736 
	C42.599220,142.751984 36.349258,139.086517 29.883017,135.806854 
	C28.710817,135.212311 27.594755,134.434753 27.664135,132.548645 
	C28.673027,131.084564 29.893435,131.574982 31.013731,131.455765 
	C33.011757,131.243134 32.685284,129.714157 32.409798,128.424210 
	C32.117413,127.055145 31.310696,125.711563 29.846300,125.777206 
	C27.937412,125.862770 28.912943,127.505234 28.913429,128.504379 
	C28.913998,129.675888 29.052408,130.834015 27.940399,132.055481 
	C26.916721,132.575043 26.259317,132.378250 25.469090,131.554443 
	C24.549618,129.710266 24.596016,128.044876 24.622280,126.412300 
	C24.670574,123.410561 23.410666,121.373833 20.077940,120.259796 
	C20.313105,122.342102 20.535873,124.349121 19.556076,126.530045 
	C18.025248,128.087326 16.560141,127.660194 15.289534,126.903580 
	C10.680874,124.159264 5.678929,122.054695 1.273217,118.265205 
	C1.000000,110.312424 1.000000,102.624847 1.000000,94.468636 
	C3.644701,94.517937 5.951180,95.500084 6.959258,98.663094 
	C3.473615,102.143822 3.468727,102.829262 6.987477,105.912605 
	C8.432746,104.969353 7.541029,102.688530 9.579481,101.948059 
	C10.098912,101.993057 10.280257,101.994614 10.733608,101.999542 
	C12.190907,103.540825 12.258336,105.383179 12.477559,107.202492 
	C12.665166,108.759438 13.215348,110.376961 14.997429,110.451843 
	C16.946508,110.533737 16.461382,108.628357 16.779171,107.455864 
	C16.953987,106.810875 17.105446,106.169159 17.688934,105.329880 
	C19.560844,105.174126 21.735624,104.309288 21.993065,107.553589 
	C21.345240,108.866882 20.500233,109.698853 20.426172,110.942535 
	C20.332682,112.512497 20.712366,113.889221 22.051043,114.852219 
	C22.594389,115.243088 23.348610,115.653236 23.859974,115.194206 
	C25.233633,113.961136 24.437002,112.467415 24.090113,111.063271 
	C23.971844,110.584526 23.817539,110.115074 23.901833,109.304382 
	z"/>
	<path fill="#F7F7F7" opacity="1.000000" stroke="none" 
	d="
	M153.531342,1.000000 
	C153.121353,4.096246 150.067383,4.817592 147.882935,6.397464 
	C143.469040,9.589761 138.063004,11.070529 133.676712,14.438170 
	C132.095078,15.652496 129.764542,15.379813 127.949333,14.397814 
	C121.284981,10.792497 114.676353,7.083303 108.084618,3.346393 
	C107.596458,3.069652 107.408638,2.263134 107.040596,1.351452 
	C122.354225,1.000000 137.708450,1.000000 153.531342,1.000000 
	z"/>
	<path fill="#131313" opacity="1.000000" stroke="none" 
	d="
	M190.527802,67.280266 
	C193.989655,66.883041 195.944778,64.772591 198.682281,63.442951 
	C198.949554,63.173553 198.588394,62.871731 198.749405,63.043373 
	C202.036362,61.489773 205.162308,59.764534 208.644119,58.019646 
	C209.000000,59.066669 209.000000,60.133339 209.000000,61.600006 
	C203.740692,63.201805 199.667618,66.723236 195.132675,69.281914 
	C177.244614,79.374603 159.503616,89.727921 141.348877,100.018211 
	C140.029449,99.040016 140.015167,97.926956 141.011856,96.499405 
	C151.657761,90.422440 161.927902,84.592010 172.430786,78.476837 
	C172.663559,78.192078 172.571243,77.775398 172.722839,77.625137 
	C172.874435,77.474869 173.239120,77.252296 173.652145,77.211334 
	C174.645386,77.030823 175.225601,76.891273 176.012878,76.526237 
	C176.626816,75.073685 177.567734,74.322533 178.842865,73.478516 
	C179.445251,73.111237 179.799545,72.919434 180.433838,72.610207 
	C181.278885,72.256851 181.868195,72.150482 182.765442,72.322922 
	C183.410690,72.251877 183.773544,72.075432 184.398285,71.746231 
	C184.316223,69.799484 185.947922,69.535286 187.165497,68.559357 
	C188.233688,67.971695 189.031845,67.590210 190.527802,67.280266 
	z"/>
	<path fill="#3A3A3A" opacity="1.000000" stroke="none" 
	d="
	M1.000000,118.399994 
	C7.235019,120.125847 12.235357,124.546364 18.812466,127.170990 
	C19.653410,127.109261 19.848494,127.113304 20.330326,127.188950 
	C20.799261,127.339973 20.981447,127.419395 21.420704,127.652046 
	C22.013287,128.030502 22.347965,128.256958 22.947910,128.644806 
	C24.135460,129.346252 24.995865,129.956070 25.547115,131.215820 
	C26.089035,131.916260 26.646358,132.296753 27.508846,132.526215 
	C27.942225,132.265427 28.070440,132.155685 28.048191,132.249527 
	C29.939804,135.592361 33.664158,136.104813 36.558277,137.900391 
	C41.697075,141.088638 47.061722,143.912842 52.682838,146.850250 
	C53.033791,146.811127 53.011444,147.022171 52.988235,147.125702 
	C53.764194,147.761139 54.115570,148.539841 54.198460,149.798126 
	C54.198738,150.129593 54.086311,150.561813 54.043156,150.780914 
	C53.555553,151.000000 53.111111,151.000000 52.333332,151.000000 
	C46.133213,146.324524 39.300217,143.233124 32.893555,139.453430 
	C22.585621,133.372147 12.099507,127.592865 1.344336,121.842995 
	C1.000000,120.933327 1.000000,119.866661 1.000000,118.399994 
	z"/>
	<path fill="#F8F8F8" opacity="1.000000" stroke="none" 
	d="
	M11.617186,84.006943 
	C9.680552,87.893837 4.918303,87.547935 1.361362,89.960709 
	C1.000000,89.250000 1.000000,88.500000 1.000000,87.375000 
	C4.738229,87.124786 7.671260,84.490288 11.617186,84.006943 
	z"/>
	<path fill="#131313" opacity="1.000000" stroke="none" 
	d="
	M54.540245,150.052307 
	C53.179104,149.732330 52.922596,148.910797 52.967678,147.574677 
	C58.087360,144.240051 63.860725,142.289459 67.722809,137.449951 
	C67.578644,136.976501 67.744492,136.837418 68.226341,136.629013 
	C70.354774,136.690247 71.640541,135.148254 73.697205,135.070831 
	C74.381714,134.981674 74.745949,134.859024 75.339615,134.558624 
	C75.347633,133.744202 75.807625,133.375290 76.340294,132.777985 
	C76.848640,132.407166 77.153481,132.221375 77.686737,131.911957 
	C78.050575,131.681595 78.194054,131.588135 78.547684,131.349945 
	C78.897522,131.109238 79.037216,131.013229 79.392075,130.782776 
	C79.757652,130.571655 79.908058,130.494965 80.294090,130.326569 
	C80.692039,130.190155 80.854362,130.145416 81.517471,130.109436 
	C83.225075,129.620270 84.431900,129.122345 85.848694,128.368927 
	C86.585487,127.474586 87.036461,126.771431 87.905388,126.027153 
	C88.314217,125.722069 88.482918,125.608925 88.911728,125.342834 
	C89.519218,124.992836 89.863541,124.790596 90.448029,124.407928 
	C91.020660,123.995659 91.370461,123.793404 92.012390,123.480637 
	C92.655075,123.138100 93.024582,122.938705 93.690979,122.608749 
	C95.729103,121.500633 97.356430,120.215805 99.833221,120.255241 
	C110.185913,114.389130 120.239586,108.676949 130.655304,102.938560 
	C131.673889,103.609200 131.762070,104.412842 131.213364,105.635513 
	C105.602440,120.646309 80.242096,135.310669 54.540245,150.052307 
	z"/>
	<path fill="#B8B8B8" opacity="1.000000" stroke="none" 
	d="
	M131.289322,105.897018 
	C131.000626,105.214417 131.038452,104.446899 131.046814,103.295868 
	C131.015137,99.590271 131.062302,96.267136 130.992111,92.946495 
	C130.950378,90.972832 131.787811,89.455444 133.702179,89.516869 
	C135.635712,89.578903 134.867737,91.534187 134.987976,92.717476 
	C135.119263,94.009781 135.017822,95.325729 136.034454,96.695404 
	C136.034454,94.443932 136.008224,92.192055 136.042877,89.941116 
	C136.069870,88.186890 137.118042,86.901657 138.721069,86.880699 
	C140.946976,86.851601 139.764694,88.837929 139.954910,89.922462 
	C140.291779,91.843079 139.481964,93.914635 141.040314,95.995453 
	C141.228119,97.262245 141.068588,98.271622 140.949402,99.666451 
	C137.865097,101.971962 134.740479,103.892021 131.289322,105.897018 
	z"/>
	<path fill="#F8F8F8" opacity="1.000000" stroke="none" 
	d="
	M55.267498,58.614231 
	C53.192303,61.424133 50.576637,62.860744 47.352314,63.962189 
	C55.783218,55.663681 51.878117,45.198853 51.482777,35.459339 
	C51.366028,32.583164 51.762856,31.073582 54.638474,30.042646 
	C53.958851,32.636395 54.109066,34.896832 57.351917,35.600636 
	C61.900467,36.587822 64.504120,39.813129 66.940399,43.711323 
	C66.239998,44.905384 64.842598,45.099728 64.555893,46.420551 
	C64.169678,48.199833 64.656052,49.713120 66.017815,50.916695 
	C66.519478,51.360085 67.238419,51.827713 67.798729,51.406502 
	C69.317612,50.264713 68.512428,48.693146 68.297142,47.274948 
	C68.173279,46.458973 67.822731,45.682098 67.868874,44.513138 
	C71.761711,41.844826 73.624153,43.171673 73.953964,47.764267 
	C73.371948,48.991230 72.813148,49.835583 72.616501,50.829525 
	C72.147812,53.198463 72.626755,55.706013 75.139214,55.970505 
	C77.613075,56.230930 76.279518,53.436298 76.852112,52.084194 
	C77.043549,51.632133 77.121841,51.127911 77.568260,50.405365 
	C82.424904,47.417896 83.371750,51.377792 85.003860,54.488838 
	C83.718315,56.323559 81.227585,52.902367 80.493126,55.770390 
	C79.840729,58.317986 81.350060,60.133171 83.582352,61.327225 
	C84.306175,61.714401 85.049629,62.057602 86.122650,62.513218 
	C86.884865,62.784492 87.306564,62.970661 88.010933,63.361801 
	C90.272751,64.382980 91.772316,68.361374 94.701492,64.230286 
	C94.955467,64.006386 95.423698,63.997734 95.657814,63.993599 
	C97.821220,65.873482 97.601669,68.032600 96.364914,70.634460 
	C95.807060,71.010643 95.581474,71.031776 95.018127,71.090569 
	C92.080002,72.342003 90.323608,70.085999 87.819336,69.429688 
	C87.049301,69.161407 86.623772,68.974861 85.913704,68.582016 
	C83.567116,67.384148 81.450211,63.181126 79.285721,68.764915 
	C79.034882,68.995583 78.581322,69.005692 78.354538,69.010574 
	C76.358208,67.782211 77.012779,65.649048 76.276161,64.034027 
	C75.705658,62.783230 74.866898,61.341450 73.425865,61.744713 
	C71.603287,62.254753 72.506363,63.918789 72.815903,65.118591 
	C73.104729,66.238129 74.034782,67.102859 74.180466,68.612183 
	C68.754044,71.851036 66.906937,67.719849 64.982941,64.083832 
	C66.086617,62.695488 68.920509,64.863022 68.712936,61.786095 
	C68.571869,59.695087 68.255051,57.517796 65.950760,57.113327 
	C63.412704,56.667831 64.635551,59.666187 63.162678,60.811855 
	C62.458309,61.005325 62.027439,60.998569 61.273560,60.981010 
	C59.831646,59.413162 59.723499,57.596184 59.534927,55.775101 
	C59.401112,54.482845 59.283928,52.750328 57.631260,52.751328 
	C56.038967,52.752293 56.535206,54.490578 56.331699,55.532394 
	C56.141415,56.506523 56.095345,57.506802 55.267498,58.614231 
	z"/>
	<path fill="#F8F8F8" opacity="1.000000" stroke="none" 
	d="
	M59.621803,27.002167 
	C58.559212,27.978745 57.115063,28.955263 55.335457,29.965889 
	C55.191082,27.271822 57.063370,26.921558 59.621803,27.002167 
	z"/>
	<path fill="#FBFBFB" opacity="1.000000" stroke="none" 
	d="
	M198.160553,32.556053 
	C192.765335,34.386883 188.373001,37.512054 183.784012,40.506886 
	C176.871353,45.018181 169.456924,48.763023 162.233612,52.793888 
	C160.805878,53.590618 159.277771,54.207500 157.448669,54.954735 
	C156.632858,47.517586 157.599106,40.000149 156.290466,32.219910 
	C155.699493,29.761616 153.821777,28.805410 152.295090,28.360710 
	C147.194672,26.875032 144.118484,22.400993 139.221893,20.087234 
	C138.636490,17.553776 140.588699,16.913130 142.106369,16.020393 
	C145.548615,13.995574 149.125671,12.182319 152.475266,10.021619 
	C155.491684,8.075847 158.290634,7.930244 161.335495,9.739700 
	C172.494141,16.370882 183.955902,22.473034 195.132980,29.072409 
	C196.420395,29.832554 197.746948,30.588860 198.160553,32.556053 
	z"/>
	<path fill="#9D9D9D" opacity="1.000000" stroke="none" 
	d="
	M182.980774,71.934830 
	C182.700897,72.677284 182.353973,72.926254 181.794250,73.095200 
	C181.107880,73.114494 180.690643,73.327629 180.078110,73.899780 
	C178.833466,74.841515 177.832458,75.521965 176.525726,76.251587 
	C176.142197,71.140594 176.429962,65.941422 175.884567,60.831177 
	C175.331741,55.651516 177.803986,53.223667 182.913712,51.428474 
	C182.913712,58.363167 182.913712,64.902260 182.980774,71.934830 
	z"/>
	<path fill="#7A7A7A" opacity="1.000000" stroke="none" 
	d="
	M77.131790,133.270615 
	C76.668579,133.840897 76.336792,134.093323 75.787033,134.363327 
	C74.748352,128.089249 75.333832,121.767593 75.161560,115.462250 
	C75.061119,111.785683 78.322426,111.509888 80.522430,110.521751 
	C82.372635,109.690758 81.987328,111.730156 81.992836,112.693306 
	C82.024216,118.184189 81.961113,123.675613 81.974182,129.642517 
	C82.018250,130.118195 81.996620,130.037872 82.036842,130.027283 
	C81.798309,130.172897 81.556953,130.373993 81.191559,130.793076 
	C81.030113,130.966156 80.678932,131.110397 80.495667,131.060913 
	C79.962387,131.165695 79.647179,131.373596 79.186508,131.852554 
	C79.010826,132.077057 79.007439,132.008728 79.040642,132.016937 
	C78.535606,132.461823 77.763885,132.442749 77.131790,133.270615 
	z"/>
	<path fill="#9D9D9D" opacity="1.000000" stroke="none" 
	d="
	M188.164932,69.279785 
	C187.086212,70.190331 186.133011,70.782242 184.919983,71.483810 
	C183.378494,65.323555 184.319366,58.983555 184.073914,52.680538 
	C183.932907,49.059578 187.309052,48.620266 189.452499,47.679592 
	C191.442825,46.806110 190.939911,49.238407 190.959702,50.317181 
	C191.057373,55.642620 191.018295,60.970573 191.105652,66.778366 
	C191.183853,67.259094 191.107254,67.196365 191.109314,67.146912 
	C190.102234,67.614502 188.988647,67.973442 188.164932,69.279785 
	z"/>
	<path fill="#7A7A7A" opacity="1.000000" stroke="none" 
	d="
	M92.945068,122.973610 
	C92.013130,118.549561 92.345222,114.029366 91.883438,109.591782 
	C91.363350,104.593895 93.223633,101.741913 98.631744,100.485703 
	C98.631744,106.749062 98.631744,112.926636 98.427910,119.524124 
	C96.994843,121.266060 95.185852,121.735901 92.945068,122.973610 
	z"/>
	<path fill="#7A7A7A" opacity="1.000000" stroke="none" 
	d="
	M67.785927,137.080139 
	C67.416031,137.117432 67.400719,137.030075 67.406754,137.072845 
	C66.457733,131.516510 67.153702,125.875755 67.005257,120.256203 
	C66.911942,116.723129 70.050041,116.063828 72.341537,115.294434 
	C74.417259,114.597488 73.878113,116.900772 73.896835,118.007652 
	C73.981026,122.982826 73.927391,127.960335 73.880753,133.393982 
	C72.278763,135.510910 70.513550,136.804276 67.785927,137.080139 
	z"/>
	<path fill="#7A7A7A" opacity="1.000000" stroke="none" 
	d="
	M92.292915,124.163437 
	C92.170631,124.813454 92.104607,124.980614 91.719521,125.043953 
	C91.137169,125.097755 90.748505,125.284897 90.178764,125.806305 
	C89.950905,126.043411 89.763283,126.198044 89.666656,126.124283 
	C88.599686,126.247833 87.743073,126.813927 86.374405,126.930809 
	C83.578461,127.221237 83.848671,125.452110 83.833321,124.000641 
	C83.796318,120.502365 84.122810,116.971992 83.756096,113.512505 
	C83.282173,109.041687 85.171349,106.652153 89.604126,105.567047 
	C91.387779,111.251595 88.572632,117.380585 91.619446,122.973129 
	C92.031471,123.033295 92.003944,123.003204 91.990570,122.987816 
	C92.158585,123.231049 92.339966,123.489670 92.292915,124.163437 
	z"/>
	<path fill="#ADADAD" opacity="1.000000" stroke="none" 
	d="
	M148.190353,62.539192 
	C137.262299,69.117233 126.555519,75.331696 115.811836,81.481712 
	C114.794846,82.063858 113.445450,83.677498 112.420975,82.157417 
	C111.327316,80.534691 112.927284,79.575020 114.286377,78.799706 
	C124.619781,72.904922 134.939758,66.986610 145.616455,61.028839 
	C147.341476,60.211983 148.144531,60.619984 148.190353,62.539192 
	z"/>
	<path fill="#969696" opacity="1.000000" stroke="none" 
	d="
	M172.808716,78.023941 
	C172.550980,78.218796 172.595734,78.156204 172.629639,78.174141 
	C168.580627,78.957634 167.333466,77.292061 167.851715,73.257065 
	C168.268753,70.010063 167.952408,66.666672 167.929489,63.366272 
	C167.917770,61.679157 167.947937,60.031540 169.564545,58.964066 
	C170.652130,58.245930 171.751984,57.073696 173.066422,57.453072 
	C174.774643,57.946098 174.057510,59.680965 174.068008,60.869545 
	C174.113205,65.983101 174.023697,71.097847 174.024216,76.691261 
	C174.065170,77.170364 174.007996,77.092308 174.048782,77.066292 
	C173.739120,77.291008 173.398071,77.553940 172.808716,78.023941 
	z"/>
	<path fill="#9D9D9D" opacity="1.000000" stroke="none" 
	d="
	M198.890259,62.730537 
	C198.910416,63.215004 198.885101,63.154690 198.917328,63.164124 
	C196.915237,62.328560 195.230988,63.986900 192.943069,64.119041 
	C192.943069,58.502762 192.956558,53.036865 192.937775,47.571079 
	C192.927261,44.515240 195.152481,43.306683 197.463211,43.309711 
	C199.965714,43.312996 198.965286,45.841747 198.988358,47.274281 
	C199.068649,52.262951 198.927231,57.255192 198.890259,62.730537 
	z"/>
	<path fill="#ADADAD" opacity="1.000000" stroke="none" 
	d="
	M144.205475,57.625320 
	C134.400620,63.609192 124.816780,69.256149 115.193771,74.835541 
	C114.339294,75.330971 113.132126,76.634377 112.258667,75.000305 
	C111.616333,73.798607 112.500816,72.662300 113.517479,72.056793 
	C116.370110,70.357803 119.268822,68.725029 122.223412,67.210625 
	C129.021042,63.726421 135.129456,59.014370 142.559708,55.976028 
	C143.992950,55.724014 144.366379,56.317352 144.205475,57.625320 
	z"/>
	<path fill="#ADADAD" opacity="1.000000" stroke="none" 
	d="
	M144.208801,71.636246 
	C134.502060,77.580162 125.028297,83.205444 115.491570,88.721870 
	C114.596687,89.239494 113.215752,90.910385 112.240410,88.858917 
	C111.636070,87.587791 112.744171,86.727821 113.796844,86.132225 
	C123.278358,80.767593 132.765976,75.413780 142.604584,70.008400 
	C144.102325,69.677734 144.327942,70.411400 144.208801,71.636246 
	z"/>
	<path fill="#ADADAD" opacity="1.000000" stroke="none" 
	d="
	M144.207764,50.634399 
	C134.706451,56.432983 125.430389,61.897392 116.109787,67.284721 
	C114.969833,67.943619 113.494461,69.839302 112.331581,68.021889 
	C111.329826,66.456291 113.094994,65.480438 114.453751,64.715912 
	C123.714218,59.505341 132.957565,54.264359 142.555817,48.970760 
	C143.991867,48.720554 144.369278,49.317654 144.207764,50.634399 
	z"/>
	<path fill="#ADADAD" opacity="1.000000" stroke="none" 
	d="
	M133.010010,84.746552 
	C126.860748,90.159637 119.394249,93.259628 112.467850,97.800720 
	C112.447433,93.494385 115.856613,90.954391 130.567841,83.986397 
	C131.709473,83.506981 132.297791,83.904625 133.010010,84.746552 
	z"/>
	<path fill="#B2B2B2" opacity="1.000000" stroke="none" 
	d="
	M133.505264,85.023758 
	C132.603989,84.785271 132.046539,84.489929 131.202957,84.061127 
	C136.852097,79.315720 143.693924,76.278053 150.363159,72.653076 
	C151.658890,74.605385 150.648849,75.614182 149.060562,76.498665 
	C143.990479,79.322121 139.280701,82.792168 133.505264,85.023758 
	z"/>
	<path fill="#F8F8F8" opacity="1.000000" stroke="none" 
	d="
	M104.977005,76.541374 
	C104.755028,77.015869 104.554237,77.023087 104.052460,77.045593 
	C101.026161,77.401848 99.476158,76.093521 98.959290,73.214722 
	C103.803413,70.365334 103.922798,69.082336 99.951714,63.544834 
	C100.335129,60.309322 101.766747,59.370892 104.801567,60.944061 
	C105.091919,66.093544 105.045059,71.083817 104.977005,76.541374 
	z"/>
	<path fill="#B2B2B2" opacity="1.000000" stroke="none" 
	d="
	M144.322662,57.854412 
	C143.802704,57.412392 143.610428,56.844414 143.165207,56.096191 
	C143.863480,54.159725 145.718781,53.658340 147.318436,52.863861 
	C148.345367,52.353809 149.449982,50.346630 150.575531,51.941471 
	C151.867889,53.772705 150.187134,54.880093 148.619827,55.675758 
	C147.291611,56.350044 145.973129,57.043488 144.322662,57.854412 
	z"/>
	<path fill="#B2B2B2" opacity="1.000000" stroke="none" 
	d="
	M144.319183,50.865303 
	C143.802246,50.419086 143.608429,49.846169 143.159912,49.090790 
	C144.779190,46.318153 147.860474,45.920902 151.055054,43.814198 
	C150.632111,48.760151 146.989471,49.118084 144.319183,50.865303 
	z"/>
	<path fill="#B2B2B2" opacity="1.000000" stroke="none" 
	d="
	M144.347885,71.948860 
	C143.812027,71.426559 143.630920,70.868332 143.203583,70.135056 
	C144.705582,68.794922 146.420547,67.574600 148.218185,66.491493 
	C148.954285,66.047981 149.968292,65.004303 150.709366,66.157150 
	C151.368835,67.183037 150.991486,68.358055 149.779449,69.038513 
	C148.083710,69.990501 146.394592,70.954224 144.347885,71.948860 
	z"/>
	<path fill="#B2B2B2" opacity="1.000000" stroke="none" 
	d="
	M148.293060,62.789055 
	C147.903763,62.018806 147.612885,61.278099 146.284836,61.029369 
	C146.145126,60.711342 146.264603,60.365574 146.506958,60.182568 
	C147.730652,59.258572 149.246948,57.369732 150.536026,58.880310 
	C151.883545,60.459377 149.812271,61.637123 148.293060,62.789055 
	z"/>
	<path fill="#ADADAD" opacity="1.000000" stroke="none" 
	d="
	M67.398575,137.580444 
	C69.329231,136.090668 71.242432,135.063889 73.496841,133.944031 
	C73.862144,134.060699 73.886238,134.270432 73.963905,134.792236 
	C71.963608,136.441345 70.324356,138.714569 67.398575,137.580444 
	z"/>
	<path fill="#9D9D9D" opacity="1.000000" stroke="none" 
	d="
	M92.953644,123.077820 
	C94.068993,121.151245 95.837296,120.489922 97.945816,119.937180 
	C98.542885,119.960808 98.861687,119.977562 99.656372,120.047806 
	C98.269859,121.280540 96.407478,122.459770 94.222450,123.716202 
	C93.598106,123.636276 93.294785,123.482376 92.953644,123.077820 
	z"/>
	<path fill="#B2B2B2" opacity="1.000000" stroke="none" 
	d="
	M86.021667,127.233154 
	C86.701233,125.974701 87.705574,125.794800 89.185364,125.948914 
	C88.633102,126.711716 87.696182,127.372910 86.408966,128.073761 
	C86.052307,127.917725 86.045959,127.722023 86.021667,127.233154 
	z"/>
	<path fill="#FBFBFB" opacity="1.000000" stroke="none" 
	d="
	M157.141388,59.245842 
	C157.368500,59.130428 157.615005,59.324177 157.903702,59.811607 
	C157.665863,59.957378 157.404160,59.773952 157.141388,59.245842 
	z"/>
	<path fill="#FBFBFB" opacity="1.000000" stroke="none" 
	d="
	M145.057617,32.524975 
	C132.939774,40.580460 120.793404,48.138844 107.988701,54.606129 
	C105.278473,55.974987 103.324646,55.338543 101.095268,54.042126 
	C90.644844,47.965034 79.964104,42.279961 69.887596,35.565922 
	C68.530205,34.661484 66.905510,34.158230 65.193443,33.191490 
	C64.942154,30.378721 67.115692,29.721458 68.724640,28.759180 
	C79.265953,22.454622 90.039398,16.550274 100.651566,10.366920 
	C103.294777,8.826805 105.940575,8.426520 108.665245,10.014354 
	C119.850006,16.532394 131.132492,22.880251 142.326950,29.381052 
	C143.473602,30.046925 144.555466,30.844637 145.057617,32.524975 
	z"/>
	<path fill="#D8D8D8" opacity="1.000000" stroke="none" 
	d="
	M145.367294,32.923256 
	C132.960632,24.715832 119.782158,18.427128 107.429634,10.737179 
	C105.690544,9.654527 103.974983,9.879759 102.263985,10.879318 
	C89.977325,18.057152 77.684013,25.223581 65.187553,32.653702 
	C63.759609,32.756901 61.990524,33.697582 61.497849,32.027004 
	C61.051056,30.512012 62.708866,29.806417 63.809032,29.177980 
	C76.361305,22.007917 88.963707,14.925290 101.491516,7.713000 
	C103.894066,6.329847 105.881454,6.176078 108.372841,7.623989 
	C121.999374,15.543301 135.714050,23.310968 149.484604,31.179993 
	C148.295654,32.615269 147.100723,33.012730 145.367294,32.923256 
	z"/>
	<path fill="#D8D8D8" opacity="1.000000" stroke="none" 
	d="
	M198.439911,32.890541 
	C190.559189,26.906874 181.591324,23.250698 173.441833,18.220060 
	C169.076355,15.525270 164.503265,13.167971 160.118713,10.502367 
	C157.837173,9.115296 156.002289,9.274941 153.752777,10.727953 
	C149.034592,13.775536 144.110901,16.504948 139.087540,19.655476 
	C137.779510,19.882160 136.397324,20.193409 136.124588,18.582842 
	C135.932632,17.449301 136.778290,16.747711 137.659149,16.239550 
	C143.693878,12.758150 149.765869,9.340486 155.768066,5.804203 
	C157.038132,5.055924 157.991608,5.481753 158.997986,6.059099 
	C172.375366,13.733476 185.753326,21.406944 199.104141,29.127352 
	C201.446136,30.481653 201.369415,31.836504 198.439911,32.890541 
	z"/>
	<path fill="#B8B8B8" opacity="1.000000" stroke="none" 
	d="
	M99.628609,63.122414 
	C102.458252,64.676003 104.142868,66.265228 104.005783,69.759781 
	C103.866905,73.300072 102.798248,74.036758 99.076546,72.957314 
	C98.017815,72.875580 97.684990,72.684128 97.212189,72.179733 
	C96.925400,71.640633 96.739349,71.389275 96.244568,71.099548 
	C96.018303,68.946785 96.003967,66.904045 95.940781,64.425385 
	C96.302673,61.084393 97.978928,62.697460 99.628609,63.122414 
	z"/>
	<path fill="#C0C0C0" opacity="1.000000" stroke="none" 
	d="
	M94.933716,63.646057 
	C94.859901,65.439697 94.764336,66.873001 94.645203,68.659874 
	C91.926514,67.776382 89.713036,66.699883 87.931129,64.344673 
	C86.383476,62.008228 86.379761,59.896687 87.682114,57.367447 
	C88.428268,57.070580 88.844910,57.117035 89.572403,57.212799 
	C91.087845,57.109188 91.829697,57.863766 92.753731,58.881500 
	C94.408417,60.133080 95.204781,61.451023 94.933716,63.646057 
	z"/>
	<path fill="#D3D3D3" opacity="1.000000" stroke="none" 
	d="
	M67.717545,44.144230 
	C69.005661,45.643513 70.310738,46.998058 69.961067,49.032307 
	C69.696022,50.574226 70.777542,52.684410 69.025436,53.548897 
	C67.082726,54.507431 65.711456,52.476112 64.365578,51.481182 
	C61.968132,49.708881 62.927868,46.909435 63.172668,44.583118 
	C63.416191,42.269001 65.141533,43.876045 66.620605,43.998650 
	C66.987862,44.050289 67.475410,44.104946 67.717545,44.144230 
	z"/>
	<path fill="#C6C6C6" opacity="1.000000" stroke="none" 
	d="
	M77.466690,50.074394 
	C77.836296,50.940613 78.103607,51.807137 77.918282,52.562634 
	C77.430809,54.549881 79.452835,57.469151 76.548271,58.424812 
	C74.278831,59.171505 70.946434,54.786110 71.083328,51.677013 
	C71.149155,50.181767 70.477478,48.143562 73.542099,48.134872 
	C75.011070,48.784386 76.084572,49.404240 77.466690,50.074394 
	z"/>
	<path fill="#C6C6C6" opacity="1.000000" stroke="none" 
	d="
	M86.208382,63.597012 
	C83.446770,62.255692 79.543236,62.081631 79.177948,58.090305 
	C79.015823,56.318878 78.273125,53.883518 79.642906,52.849476 
	C81.315231,51.587048 82.813858,53.855148 84.695183,54.741776 
	C85.297684,55.072498 85.576378,55.298470 86.002678,55.749825 
	C87.392822,58.338692 87.195778,60.770302 86.208382,63.597012 
	z"/>
	<path fill="#F5F5F5" opacity="1.000000" stroke="none" 
	d="
	M86.242325,63.979702 
	C85.973236,61.600212 86.023102,59.232231 86.111618,56.419724 
	C86.668121,56.165508 87.185959,56.355812 87.857712,56.785118 
	C87.983902,59.062275 87.956177,61.100433 87.880371,63.574150 
	C87.408623,64.003548 86.984955,63.997375 86.242325,63.979702 
	z"/>
	<path fill="#F8F8F8" opacity="1.000000" stroke="none" 
	d="
	M92.931229,58.789734 
	C92.042191,58.674068 91.142601,58.215000 90.063133,57.509022 
	C91.846550,55.218113 92.377731,56.847290 92.931229,58.789734 
	z"/>
	<path fill="#FBFBFB" opacity="1.000000" stroke="none" 
	d="
	M92.899246,91.674591 
	C90.048180,96.168015 85.111404,97.316978 81.023598,99.659409 
	C79.429169,100.573044 77.095345,100.829536 75.766144,102.181557 
	C70.322098,107.719032 62.331295,109.030701 56.565754,114.048531 
	C54.981953,115.426933 52.466839,117.331932 50.398170,114.768204 
	C46.209446,109.577080 39.714123,108.252899 34.527813,104.771355 
	C27.969778,100.368988 20.572651,97.356903 14.123029,92.208656 
	C13.908819,89.581306 15.838868,88.879784 17.325714,88.006355 
	C28.048954,81.707123 38.795048,75.445976 49.664433,69.399628 
	C51.500340,68.378357 53.381054,67.809784 55.328838,68.903412 
	C67.614792,75.801628 80.010818,82.512390 91.852310,90.173203 
	C92.264000,90.439529 92.531944,90.893517 92.899246,91.674591 
	z"/>
	<path fill="#D8D8D8" opacity="1.000000" stroke="none" 
	d="
	M93.361687,92.034706 
	C80.650963,84.877052 68.294838,77.731911 55.958290,70.553131 
	C54.324123,69.602196 52.881771,68.853477 50.919212,70.012688 
	C38.774658,77.185997 26.575888,84.267532 14.184404,91.633652 
	C12.515698,91.906990 11.003686,92.460297 9.321807,91.239838 
	C11.929488,87.516525 16.292852,86.383591 19.805849,84.258064 
	C29.897352,78.152229 40.304031,72.569504 50.495152,66.624039 
	C52.289070,65.577469 53.398884,65.366173 55.336533,66.498604 
	C67.963142,73.878036 80.730743,81.015892 93.400101,88.323128 
	C94.568672,88.997108 96.498199,89.481239 96.311592,91.233276 
	C96.199272,92.287910 94.677284,91.965843 93.361687,92.034706 
	z"/>
	<path fill="#B2B2B2" opacity="1.000000" stroke="none" 
	d="
	M99.001221,72.982971 
	C99.489182,75.248795 101.772125,75.522003 103.481628,76.901276 
	C103.778641,77.558121 103.940750,78.094536 103.809769,78.545891 
	C103.220871,80.575302 105.338814,83.503876 102.418396,84.607071 
	C100.313774,85.402100 96.004486,80.608452 96.017685,77.852386 
	C96.024757,76.376053 96.255379,74.900795 96.687569,73.145767 
	C97.429420,72.598579 97.904793,72.515121 98.717056,72.804520 
	C99.023193,73.019615 99.015686,72.988708 99.001221,72.982971 
	z"/>
	<path fill="#B8B8B8" opacity="1.000000" stroke="none" 
	d="
	M50.427433,123.972382 
	C50.868244,124.922600 51.278988,125.797928 51.095783,126.523232 
	C50.592518,128.515625 53.049221,131.800873 50.628654,132.198685 
	C48.246357,132.590210 44.880066,131.169235 43.912453,127.351837 
	C43.894947,126.500671 44.014305,126.003571 43.959053,125.526695 
	C43.467777,121.286293 44.991856,120.533249 48.403275,122.903038 
	C48.935326,123.272621 49.549946,123.523361 50.427433,123.972382 
	z"/>
	<path fill="#C0C0C0" opacity="1.000000" stroke="none" 
	d="
	M79.067886,69.357788 
	C79.059738,68.509872 79.156746,68.015282 79.098236,67.539833 
	C78.539894,63.002647 80.326248,62.934055 83.440414,65.208214 
	C84.339287,65.864616 85.538795,66.138191 86.112534,67.654358 
	C87.619354,70.009544 87.619820,72.126587 86.327621,74.654594 
	C83.073555,74.058899 79.877762,73.469803 79.067886,69.357788 
	z"/>
	<path fill="#B8B8B8" opacity="1.000000" stroke="none" 
	d="
	M87.844696,68.416168 
	C90.116768,69.053459 92.081329,70.043785 94.363129,71.081177 
	C94.733994,71.783531 94.882881,72.447571 94.823692,73.092514 
	C94.632858,75.171913 95.901520,78.180222 94.194138,79.113777 
	C92.214157,80.196365 90.137909,77.801285 88.047379,76.294205 
	C86.626007,73.648308 86.777008,71.221153 87.844696,68.416168 
	z"/>
	<path fill="#C0C0C0" opacity="1.000000" stroke="none" 
	d="
	M42.929092,126.568924 
	C40.065617,128.511780 37.857952,126.283218 36.768398,124.703796 
	C35.309025,122.588303 34.864853,119.510216 37.611092,117.037041 
	C42.314175,118.588898 43.726460,121.766045 42.929092,126.568924 
	z"/>
	<path fill="#C6C6C6" opacity="1.000000" stroke="none" 
	d="
	M62.972954,61.320351 
	C62.929966,60.359287 62.851334,59.670506 63.035042,59.060772 
	C63.494293,57.536472 61.982002,54.470982 64.285530,54.749084 
	C66.316833,54.994324 69.656677,55.946468 69.856964,59.308743 
	C69.970604,61.216507 70.153008,63.393909 69.362732,64.980927 
	C68.874901,65.960564 67.169510,64.171913 65.572868,63.949669 
	C64.515633,63.141899 63.786182,62.385254 62.972954,61.320351 
	z"/>
	<path fill="#D3D3D3" opacity="1.000000" stroke="none" 
	d="
	M17.614775,105.019768 
	C17.919186,106.209648 18.102591,107.390533 17.924952,108.514336 
	C17.679775,110.065430 18.958698,112.878082 16.124523,112.654938 
	C13.921648,112.481499 11.066320,111.684349 10.999093,108.343102 
	C10.962563,106.527542 10.991252,104.710670 10.998070,102.448639 
	C11.789707,102.324440 12.573800,102.645973 13.673992,103.011337 
	C14.616494,102.982826 15.150612,103.168037 15.770247,103.859268 
	C16.413542,104.389320 16.873156,104.687317 17.614775,105.019768 
	z"/>
	<path fill="#C6C6C6" opacity="1.000000" stroke="none" 
	d="
	M23.773157,108.892738 
	C24.978382,110.096703 26.342299,111.008759 25.957478,112.763374 
	C25.598717,114.399162 26.967783,117.345314 24.836090,117.413315 
	C22.543949,117.486435 19.175472,116.381378 19.223715,113.056763 
	C19.248659,111.337807 16.960594,107.954330 21.674717,107.829956 
	C22.505905,108.224152 23.003508,108.511879 23.773157,108.892738 
	z"/>
	<path fill="#C6C6C6" opacity="1.000000" stroke="none" 
	d="
	M74.423859,68.997787 
	C73.405533,68.273323 72.620903,67.667526 72.018295,66.915810 
	C70.286034,64.754929 70.936890,62.276001 71.425919,59.944786 
	C71.634537,58.950310 72.761940,59.361683 73.484177,59.735943 
	C75.601845,60.833298 78.272232,61.421806 78.003510,64.726768 
	C77.911201,65.862045 78.019318,67.013611 78.081802,68.586594 
	C77.015289,70.658875 75.871460,69.209999 74.423859,68.997787 
	z"/>
	<path fill="#C6C6C6" opacity="1.000000" stroke="none" 
	d="
	M32.700813,113.898224 
	C33.342072,115.088249 33.960602,116.172791 33.970665,117.262939 
	C33.986748,119.005363 34.816261,121.089470 33.324829,122.418694 
	C32.417725,123.227127 31.189856,122.032295 30.227760,121.464378 
	C28.338202,120.348969 26.437407,119.112572 27.198921,116.455536 
	C27.627525,114.960075 27.300188,113.063835 29.476292,112.126923 
	C30.686422,112.648003 31.545740,113.221626 32.700813,113.898224 
	z"/>
	<path fill="#D3D3D3" opacity="1.000000" stroke="none" 
	d="
	M55.397690,58.920746 
	C55.013592,57.243618 54.853439,55.599419 54.992287,53.980869 
	C55.113884,52.563335 54.137398,50.191868 56.784683,50.308884 
	C58.713127,50.394131 60.728718,51.325386 60.948631,53.721069 
	C61.141884,55.826305 61.002331,57.962086 60.980156,60.527294 
	C59.259151,60.193913 57.725079,59.009747 55.397690,58.920746 
	z"/>
	<path fill="#D8D8D8" opacity="1.000000" stroke="none" 
	d="
	M9.876657,101.672592 
	C9.057664,102.695129 9.232284,103.731926 8.978130,104.651306 
	C8.642420,105.865723 10.206387,108.634842 7.384315,107.979355 
	C4.087217,107.213524 2.552764,104.721184 2.878468,100.975792 
	C3.120530,98.192238 4.185516,98.052094 6.627037,98.967758 
	C7.589030,100.220757 9.545276,99.777573 9.876657,101.672592 
	z"/>
	<path fill="#F5F5F5" opacity="1.000000" stroke="none" 
	d="
	M87.830048,68.042000 
	C88.075005,70.420258 87.997795,72.777374 87.876511,75.577339 
	C87.323479,75.835358 86.814529,75.650536 86.152786,75.232834 
	C86.034836,72.952911 86.069664,70.905891 86.164948,68.423058 
	C86.652893,67.998451 87.080391,68.009659 87.830048,68.042000 
	z"/>
	<path fill="#F8F8F8" opacity="1.000000" stroke="none" 
	d="
	M15.964512,103.750160 
	C15.412985,103.902359 14.872040,103.713394 14.160593,103.289795 
	C14.173220,102.383636 14.075148,101.357903 15.159557,101.557747 
	C16.112400,101.733353 15.890526,102.700470 15.964512,103.750160 
	z"/>
	<path fill="#F8F8F8" opacity="1.000000" stroke="none" 
	d="
	M98.871475,72.755630 
	C98.566124,73.040886 98.109055,73.062149 97.320999,72.974945 
	C96.990013,72.866478 96.997421,72.415230 97.006035,72.189438 
	C97.583015,72.139641 98.151382,72.315636 98.871475,72.755630 
	z"/>
	<path fill="#C6C6C6" opacity="1.000000" stroke="none" 
	d="
	M25.598446,131.051727 
	C24.461294,130.991455 23.390879,130.447144 22.131941,129.667221 
	C21.843676,129.034561 21.661732,128.681061 21.131386,128.211716 
	C20.877775,128.045654 20.977938,128.047607 20.970465,128.097137 
	C20.617479,127.570641 20.007837,127.500771 19.174807,127.212982 
	C18.910076,127.074287 18.951483,127.157501 18.920845,127.191742 
	C18.890209,124.433113 18.890209,121.640236 18.890209,118.712059 
	C26.326923,120.661163 26.636547,121.242622 25.598446,131.051727 
	z"/>
	<path fill="#C0C0C0" opacity="1.000000" stroke="none" 
	d="
	M27.863335,132.364151 
	C27.749205,131.068909 27.748764,129.755478 27.604053,128.458145 
	C27.402267,126.649117 26.030252,123.905167 28.834688,123.770592 
	C30.870874,123.672874 33.610374,124.877495 34.054272,128.054565 
	C34.807484,133.445419 33.961540,134.137726 28.247026,132.298004 
	C27.897726,132.453110 27.912659,132.353134 27.863335,132.364151 
	z"/>
	<path fill="#D3D3D3" opacity="1.000000" stroke="none" 
	d="
	M188.345123,69.421188 
	C187.925323,67.971771 188.640564,67.075378 190.710831,67.058456 
	C190.918396,68.531914 189.594681,68.670219 188.345123,69.421188 
	z"/>
	<path fill="#D3D3D3" opacity="1.000000" stroke="none" 
	d="
	M180.182312,74.056786 
	C180.174866,73.829468 180.515289,73.497871 181.218567,73.090721 
	C181.231018,73.327614 180.880585,73.640060 180.182312,74.056786 
	z"/>
	<path fill="#D3D3D3" opacity="1.000000" stroke="none" 
	d="
	M172.911377,78.140533 
	C172.840469,77.869064 173.129959,77.519341 173.754501,77.104942 
	C173.816971,77.380943 173.544388,77.721611 172.911377,78.140533 
	z"/>
	<path fill="#F8F8F8" opacity="1.000000" stroke="none" 
	d="
	M18.977276,127.427261 
	C19.516340,127.228226 20.122604,127.382172 20.845930,127.841385 
	C20.192213,128.711823 19.646244,128.099960 18.977276,127.427261 
	z"/>
	<path fill="#F8F8F8" opacity="1.000000" stroke="none" 
	d="
	M20.826473,128.384827 
	C21.186739,128.301132 21.495705,128.556610 21.874046,129.121857 
	C21.554007,129.195740 21.164589,128.959854 20.826473,128.384827 
	z"/>
	<path fill="#D3D3D3" opacity="1.000000" stroke="none" 
	d="
	M92.685738,122.883926 
	C93.219078,122.941826 93.474113,123.124535 93.791054,123.583008 
	C93.512436,124.027191 93.125069,124.260986 92.401093,124.536682 
	C91.964722,124.315514 91.864960,124.052452 91.871201,123.380905 
	C91.977203,122.972427 92.454277,122.943375 92.685738,122.883926 
	z"/>
	<path fill="#D3D3D3" opacity="1.000000" stroke="none" 
	d="
	M77.281204,133.406952 
	C77.043152,132.736450 77.369995,132.111328 78.685303,131.995270 
	C78.569916,132.425247 78.065979,132.825348 77.281204,133.406952 
	z"/>
	<path fill="#C6C6C6" opacity="1.000000" stroke="none" 
	d="
	M90.267273,125.952301 
	C90.257668,125.722420 90.564438,125.401428 91.221924,125.044144 
	C91.242973,125.292297 90.913300,125.576752 90.267273,125.952301 
	z"/>
	<path fill="#D3D3D3" opacity="1.000000" stroke="none" 
	d="
	M81.295486,130.942108 
	C81.181068,130.643616 81.332024,130.321060 81.780022,130.007599 
	C81.904991,130.317139 81.732918,130.617615 81.295486,130.942108 
	z"/>
	<path fill="#D3D3D3" opacity="1.000000" stroke="none" 
	d="
	M79.299805,132.012756 
	C79.225822,131.748520 79.440819,131.419983 79.984100,131.051453 
	C80.071198,131.323776 79.829994,131.636108 79.299805,132.012756 
	z"/>
	<path fill="#D8D8D8" opacity="1.000000" stroke="none" 
	d="
	M55.607361,45.958981 
	C54.878132,43.542282 54.296989,41.300331 55.748650,39.510273 
	C56.528656,38.548439 57.882706,39.515331 58.923351,39.998653 
	C61.714924,41.295181 60.951019,43.833111 61.005737,46.048145 
	C61.028214,46.957958 61.316879,48.347557 60.027012,48.491905 
	C58.280670,48.687336 56.990540,47.495903 55.607361,45.958981 
	z"/>
</svg>